# xmcd CD database file
#
# Track frame offsets:
#	150
#	55350
#	85460
#	131033
#	157098
#	192518
#	223215
#	267223
#
# Disc length: 3950 seconds
#
# Revision: 0
# Processed by: cddbd v1.5.2PL0 Copyright (c) Steve Scherf et al.
# Submitted via: CDex 1.70beta3
#
DISCID=7f0f6c08
DTITLE=SONNY ROLLINS - THE JAZZ LEGEND
DYEAR=1900
DGENRE=Jazz
TTITLE0=テナー・マッドネス TENOR MADNESS
TTITLE1=朝日のようにさわやかに SOFTRY ASIN A MORNING SUNRISE
TTITLE2=モリタート（マック・ザ・ナイフ） MORITAT
TTITLE3=チューン・アップ TUNE UP
TTITLE4=ソリチュード SOLITUDE
TTITLE5=セント・トーマス ST．THOMAS
TTITLE6=アルフィーのテーマ ALFIE’S THEME
TTITLE7=ユー・ドント・ノウ・ホワット・ラヴ・イズ YOU DONT KNOW WHAT LOVE IS
EXTD=
EXTT0=
EXTT1=
EXTT2=
EXTT3=
EXTT4=
EXTT5=
EXTT6=
EXTT7=
PLAYORDER=
